<?xml version="1.0" standalone="no"?><!DOCTYPE svg PUBLIC "-//W3C//DTD SVG 1.1//EN" "http://www.w3.org/Graphics/SVG/1.1/DTD/svg11.dtd"><svg class="icon" width="48px" height="20.65px" viewBox="0 0 2380 1024" version="1.1" xmlns="http://www.w3.org/2000/svg"><path d="M512 0h1356.8a512 512 0 0 1 512 512 512 512 0 0 1-512 512H512A512 512 0 0 1 0 512 512 512 0 0 1 512 0z" fill="#d81e06" /><path d="M512 102.4h1356.8a409.6 409.6 0 0 1 409.6 409.6 409.6 409.6 0 0 1-409.6 409.6H512A409.6 409.6 0 0 1 102.4 512 409.6 409.6 0 0 1 512 102.4z" fill="#d81e06" /></svg>