<?xml version="1.0" standalone="no"?><!DOCTYPE svg PUBLIC "-//W3C//DTD SVG 1.1//EN" "http://www.w3.org/Graphics/SVG/1.1/DTD/svg11.dtd"><svg t="1629383083828" class="icon" viewBox="0 0 1024 1024" version="1.1" xmlns="http://www.w3.org/2000/svg" p-id="4538" xmlns:xlink="http://www.w3.org/1999/xlink" width="200" height="200"><defs><style type="text/css"></style></defs><path d="M903.168 785.408h-66.3552V418.56c0-11.8272-9.5744-21.4016-21.4016-21.4016h-62.4128c-11.8272 0-21.4016 9.5744-21.4016 21.4016v366.848h-72.5504V493.056c0-11.8272-9.5744-21.4016-21.4016-21.4016h-65.024c-11.8272 0-21.4016 9.5744-21.4016 21.4016v292.352H476.7232v-140.3392c0-11.8272-9.5744-21.4016-21.4016-21.4016H394.1888c-11.8272 0-21.4016 9.5744-21.4016 21.4016v140.3392H297.2672v-254.1056c0-11.8272-9.5744-21.4016-21.4016-21.4016H211.8144c-11.8272 0-21.4016 9.5744-21.4016 21.4016v254.1056H120.832a36.3008 36.3008 0 0 0-36.3008 36.3008v44.4416a36.3008 36.3008 0 0 0 36.3008 36.3008h782.336a36.3008 36.3008 0 0 0 36.3008-36.3008v-44.4416c0-20.0704-16.2304-36.3008-36.3008-36.3008z" fill="#ff867e" p-id="4539"></path><path d="M424.7552 493.9264c-5.8368 0-11.6736-1.9968-16.4352-5.9904L242.176 348.672 121.6512 429.5168c-11.776 7.8848-27.648 4.7616-35.5328-7.0144a25.58464 25.58464 0 0 1 7.0144-35.5328l136.448-91.4944a25.61024 25.61024 0 0 1 30.72 1.6384l164.4032 137.7792 163.9424-137.7792c1.0752-0.9216 2.2528-1.7408 3.4304-2.4576l179.0976-105.8816c8.704-5.1712 19.6096-4.7104 27.904 1.1776l110.1312 78.4384a25.57952 25.57952 0 0 1 5.9904 35.6864 25.53856 25.53856 0 0 1-35.6864 5.9904l-96.5632-68.7616-162.9696 96.3584L441.1904 487.936c-4.7616 3.9936-10.5984 5.9904-16.4352 5.9904z" fill="#ff867e" p-id="4540"></path><path d="M243.8656 316.7744m-53.4528 0a53.4528 53.4528 0 1 0 106.9056 0 53.4528 53.4528 0 1 0-106.9056 0Z" fill="#ff867e" p-id="4541"></path><path d="M424.7552 468.3264m-56.3712 0a56.3712 56.3712 0 1 0 112.7424 0 56.3712 56.3712 0 1 0-112.7424 0Z" fill="#ff867e" p-id="4542"></path><path d="M605.1328 316.7744m-53.9136 0a53.9136 53.9136 0 1 0 107.8272 0 53.9136 53.9136 0 1 0-107.8272 0Z" fill="#ff867e" p-id="4543"></path><path d="M784.2304 210.8416m-52.6336 0a52.6336 52.6336 0 1 0 105.2672 0 52.6336 52.6336 0 1 0-105.2672 0Z" fill="#ff867e" p-id="4544"></path><path d="M530.7904 151.3472h-23.3472v-20.1728c0-14.1312-11.4688-25.6-25.6-25.6s-25.6 11.4688-25.6 25.6v20.1728h-23.3472c-14.1312 0-25.6 11.4688-25.6 25.6s11.4688 25.6 25.6 25.6h23.3472v20.1728c0 14.1312 11.4688 25.6 25.6 25.6s25.6-11.4688 25.6-25.6v-20.1728h23.3472c14.1312 0 25.6-11.4688 25.6-25.6s-11.4176-25.6-25.6-25.6z" fill="#ff867e" p-id="4545"></path></svg>