<?xml version="1.0" standalone="no"?><!DOCTYPE svg PUBLIC "-//W3C//DTD SVG 1.1//EN" "http://www.w3.org/Graphics/SVG/1.1/DTD/svg11.dtd"><svg class="icon" width="128px" height="128.00px" viewBox="0 0 1024 1024" version="1.1" xmlns="http://www.w3.org/2000/svg"><path d="M648.533333 136.533333l286.446934 57.275734A68.266667 68.266667 0 0 1 989.866667 260.778667V887.466667a68.266667 68.266667 0 0 1-68.266667 68.266666h-273.066667V136.533333z" fill="#FFAA44" /><path d="M34.133333 136.533333a68.266667 68.266667 0 0 1 68.266667-68.266666h477.866667a68.266667 68.266667 0 0 1 68.266666 68.266666v819.2H102.4a68.266667 68.266667 0 0 1-68.266667-68.266666V136.533333z" fill="#FF7744" /><path d="M221.866667 307.2A51.2 51.2 0 0 1 273.066667 256h136.533333a51.2 51.2 0 0 1 0 102.4H273.066667A51.2 51.2 0 0 1 221.866667 307.2z m0 204.8A51.2 51.2 0 0 1 273.066667 460.8h136.533333a51.2 51.2 0 0 1 0 102.4H273.066667A51.2 51.2 0 0 1 221.866667 512z m477.866666 0a51.2 51.2 0 0 1 51.2-51.2h68.266667a51.2 51.2 0 0 1 0 102.4h-68.266667a51.2 51.2 0 0 1-51.2-51.2zM238.933333 750.933333a68.266667 68.266667 0 0 1 68.266667-68.266666h68.266667a68.266667 68.266667 0 0 1 68.266666 68.266666v102.4a34.133333 34.133333 0 0 1-34.133333 34.133334H273.066667a34.133333 34.133333 0 0 1-34.133334-34.133334v-102.4z m546.133334-34.133333a34.133333 34.133333 0 0 0-34.133334 34.133333v102.4a34.133333 34.133333 0 1 0 68.266667 0v-102.4a34.133333 34.133333 0 0 0-34.133333-34.133333z" fill="#FFFFFF" /></svg>