<?xml version="1.0" standalone="no"?><!DOCTYPE svg PUBLIC "-//W3C//DTD SVG 1.1//EN" "http://www.w3.org/Graphics/SVG/1.1/DTD/svg11.dtd"><svg t="1629382916257" class="icon" viewBox="0 0 1024 1024" version="1.1" xmlns="http://www.w3.org/2000/svg" p-id="2463" xmlns:xlink="http://www.w3.org/1999/xlink" width="200" height="200"><defs><style type="text/css"></style></defs><path d="M512 0C269.677714 0 73.142857 196.481829 73.142857 438.857143c0 162.338743 88.393143 303.733029 219.428571 379.642514L292.571429 914.285714c0 40.393143 32.749714 73.142857 73.142857 73.142857l73.142857 0c0 20.196571 16.356571 36.571429 36.571429 36.571429l73.142857 0c20.214857 0 36.571429-16.374857 36.571429-36.571429l73.142857 0c40.393143 0 73.142857-32.749714 73.142857-73.142857l0-95.767771C862.464 742.606629 950.857143 601.195886 950.857143 438.857143 950.857143 196.481829 754.357029 0 512 0zM658.285714 914.285714 365.714286 914.285714l0-36.571429 292.571429 0L658.285714 914.285714zM658.285714 841.142857 365.714286 841.142857l0-22.6432L365.714286 804.571429l292.571429 0 0 13.946514L658.285714 841.142857zM694.749257 755.232914 672.714971 768 530.285714 768 530.285714 546.731886c51.821714-8.749714 91.428571-53.553371 91.428571-107.874743 0-60.589714-49.142857-109.714286-109.714286-109.714286s-109.714286 49.124571-109.714286 109.714286c0 54.321371 39.606857 99.125029 91.428571 107.874743L493.714286 768l-142.392686 0-22.070857-12.785371C216.393143 689.839543 146.285714 568.607086 146.285714 438.857143c0-201.660343 164.072229-365.714286 365.714286-365.714286s365.714286 164.053943 365.714286 365.714286C877.714286 568.625371 807.606857 689.857829 694.749257 755.232914zM512 512c-40.321829 0-73.142857-32.821029-73.142857-73.142857s32.821029-73.142857 73.142857-73.142857 73.142857 32.821029 73.142857 73.142857S552.321829 512 512 512z" p-id="2464" fill="#ff867e"></path></svg>