<?xml version="1.0" standalone="no"?><!DOCTYPE svg PUBLIC "-//W3C//DTD SVG 1.1//EN" "http://www.w3.org/Graphics/SVG/1.1/DTD/svg11.dtd"><svg t="1629383036864" class="icon" viewBox="0 0 1024 1024" version="1.1" xmlns="http://www.w3.org/2000/svg" p-id="3519" xmlns:xlink="http://www.w3.org/1999/xlink" width="200" height="200"><defs><style type="text/css"></style></defs><path d="M873.767394 852.441693" p-id="3520" fill="#ff867e"></path><path d="M955.484533 902.747425 955.484533 122.295324c0 0 1.131777-55.780421-59.586097-55.780421L123.059734 66.514903c-57.982576 0-59.58712 55.780421-59.58712 55.780421l0 780.511453c0-0.058328 0.059352 55.720046 59.58712 55.720046l194.954157 0 0-61.454654 0-28.109198 0-740.935086 263.414365 0 0 230.718709 78.616522-76.94137 79.242785 76.94137L739.287563 128.027885l126.769218 0c29.462009 0 29.200042 25.648147 29.200042 25.648147l0 717.747991c0 0 0.210801 25.648147-27.359115 25.648147l-419.923932 0c-16.98586 0-30.755468 13.769608-30.755468 30.755468 0 16.98586 13.769608 30.755468 30.755468 30.755468 0.603751 0 1.202385-0.022513 1.796926-0.056282L895.898437 958.526823C957.802322 958.526823 955.484533 902.747425 955.484533 902.747425zM268.305769 894.00225 156.310022 894.00225l0-0.055259c-26.434046 0-28.001751-25.544793-28.001751-25.544793L128.308271 153.573701c0-24.509207 28.001751-25.545816 28.001751-25.545816l111.995747 0L268.305769 894.00225z" p-id="3521" fill="#ff867e"></path></svg>